<svg fill="none" xmlns="http://www.w3.org/2000/svg" viewBox="20.1 10.38 319.8 151.32">
<g clip-path="url(#clip0_809_230)">
<path d="M193.96 33.1733L197.24 33.2306L206.149 24.321L206.579 20.5456C199.498 14.2475 190.182 10.4148 179.985 10.4148C161.524 10.4148 145.941 22.9765 141.325 39.9931C142.3 39.3137 144.378 39.8211 144.378 39.8211L162.186 36.8913C162.186 36.8913 163.103 35.372 163.562 35.4666C167.384 31.2849 172.658 28.7193 178.308 28.2931C183.957 27.8669 189.556 29.6124 193.963 33.1733H193.96Z" fill="#EA4335"/>
<path d="M218.701 40.0243C216.654 32.4927 212.453 25.7221 206.615 20.5425L193.996 33.1615C196.586 35.2429 198.676 37.8787 200.112 40.8747C201.548 43.8708 202.294 47.1508 202.295 50.4733V52.7007C208.435 52.7007 213.418 57.6973 213.418 63.8234C213.418 69.9495 208.421 74.9461 202.295 74.9461H180.044L177.816 77.1821V90.535L180.044 92.7509H202.295C209.958 92.7305 217.301 89.6759 222.718 84.2553C228.135 78.8347 231.184 71.4895 231.199 63.8263C231.188 53.9764 226.223 45.2503 218.672 40.0243H218.701Z" fill="#4285F4"/>
<path d="M157.736 92.771H179.981V74.9632H157.736C156.156 74.964 154.595 74.6247 153.158 73.9685L149.947 74.9518L141.038 83.8614L140.258 86.8714C145.271 90.7203 151.419 92.7972 157.739 92.7767L157.736 92.771Z" fill="#34A853"/>
<path d="M157.736 34.9016C150.065 34.9137 142.712 37.9663 137.288 43.3902C131.864 48.8142 128.812 56.1671 128.8 63.8377C128.8 68.3044 129.835 72.7102 131.825 76.7092C133.814 80.7082 136.704 84.1916 140.266 86.8857L153.166 73.9857C151.212 73.1066 149.554 71.6817 148.39 69.8825C147.227 68.0832 146.608 65.9862 146.608 63.8435C146.608 57.7031 151.604 52.7208 157.73 52.7208C159.872 52.7246 161.968 53.3451 163.766 54.5082C165.565 55.6714 166.99 57.3279 167.872 59.2797L180.772 46.3797C175.481 39.4137 167.127 34.9131 157.724 34.9131L157.736 34.9016Z" fill="#FBBC05"/>
<path d="M42.3987 148.886C36.3214 148.886 31.1041 146.736 26.7066 142.436C22.3091 138.136 20.1133 132.965 20.1133 126.933C20.1133 120.902 22.3063 115.73 26.7066 111.43C31.1069 107.13 36.33 104.977 42.3987 104.977C45.1827 104.937 47.9469 105.451 50.5303 106.489C53.1136 107.528 55.4645 109.07 57.4459 111.026L53.2118 115.26C50.3144 112.458 46.4259 110.918 42.3959 110.974C38.0099 110.974 34.2832 112.522 31.2273 115.638C29.7407 117.115 28.5686 118.877 27.7818 120.819C26.995 122.76 26.6097 124.841 26.6493 126.936C26.6493 131.368 28.1686 135.126 31.2273 138.231C32.6647 139.739 34.3996 140.932 36.3221 141.735C38.2446 142.538 40.3128 142.933 42.3959 142.895C46.8621 142.895 50.5515 141.461 53.4899 138.497C55.2099 136.777 56.3565 134.197 56.7579 130.944H42.4073V124.947H62.6001C62.8151 126.013 62.8868 127.24 62.8868 128.673C62.8868 134.567 61.1582 139.24 57.6895 142.706C53.7565 146.819 48.6595 148.869 42.3672 148.869L42.3987 148.886ZM89.3261 144.873C86.5741 147.567 83.2201 148.886 79.2583 148.886C75.2966 148.886 71.9369 147.539 69.1906 144.873C66.4443 142.207 65.0683 138.815 65.0683 134.782C65.0683 130.749 66.4443 127.386 69.1906 124.691C71.9369 121.997 75.2966 120.678 79.2583 120.678C83.2201 120.678 86.5798 122.025 89.3261 124.691C92.0723 127.357 93.4483 130.757 93.4483 134.782C93.4483 138.807 92.0723 142.178 89.3261 144.873ZM73.6339 140.917C74.3491 141.694 75.2196 142.312 76.189 142.731C77.1584 143.151 78.2051 143.362 79.2612 143.351C81.4399 143.351 83.3147 142.542 84.8885 140.914C86.4623 139.286 87.2449 137.245 87.2449 134.779C87.2449 132.285 86.4709 130.227 84.9143 128.616C83.3577 127.005 81.48 126.208 79.2612 126.208C78.2029 126.192 77.153 126.398 76.1793 126.812C75.2056 127.227 74.3297 127.841 73.6081 128.616C72.0515 130.221 71.2775 132.274 71.2775 134.779C71.2775 137.239 72.0601 139.288 73.6339 140.914V140.917ZM120.283 144.873C117.531 147.567 114.177 148.886 110.215 148.886C106.254 148.886 102.894 147.539 100.148 144.873C97.4015 142.207 96.0255 138.815 96.0255 134.782C96.0255 130.749 97.4015 127.386 100.148 124.691C102.894 121.997 106.254 120.678 110.215 120.678C114.177 120.678 117.537 122.025 120.283 124.691C123.029 127.357 124.405 130.757 124.405 134.782C124.405 138.807 123.029 142.178 120.283 144.873ZM104.591 140.917C105.306 141.694 106.177 142.312 107.146 142.731C108.116 143.151 109.162 143.362 110.218 143.351C112.397 143.351 114.272 142.542 115.846 140.914C117.419 139.286 118.202 137.245 118.202 134.779C118.202 132.285 117.428 130.227 115.871 128.616C114.315 127.005 112.437 126.208 110.218 126.208C109.16 126.192 108.11 126.398 107.136 126.812C106.163 127.227 105.287 127.841 104.565 128.616C103.009 130.221 102.235 132.274 102.235 134.779C102.235 137.239 103.017 139.288 104.591 140.914V140.917ZM140.634 161.614C137.495 161.614 134.852 160.771 132.71 159.091C130.569 157.412 129.035 155.468 128.106 153.249L133.519 151.005C134.086 152.363 134.952 153.542 136.193 154.542C137.434 155.542 138.888 156.038 140.642 156.038C142.999 156.038 144.851 155.322 146.184 153.897C147.517 152.472 148.19 150.411 148.19 147.734V145.727H147.975C146.255 147.868 143.741 148.943 140.533 148.943C136.927 148.943 133.768 147.567 131.053 144.821C129.735 143.523 128.694 141.97 127.994 140.257C127.294 138.544 126.95 136.707 126.983 134.857C126.949 132.995 127.293 131.146 127.993 129.42C128.692 127.694 129.733 126.128 131.053 124.815C133.762 122.054 136.93 120.667 140.533 120.667C142.139 120.667 143.595 120.968 144.896 121.578C146.198 122.189 147.227 122.937 147.975 123.823H148.19V121.547H154.084V146.937C154.084 151.867 152.828 155.548 150.306 158.002C147.783 160.439 144.567 161.671 140.637 161.671L140.634 161.614ZM141.064 143.348C142.086 143.366 143.099 143.157 144.03 142.736C144.962 142.315 145.788 141.693 146.45 140.914C147.895 139.288 148.617 137.265 148.617 134.831C148.617 132.371 147.895 130.313 146.45 128.667C145.792 127.882 144.967 127.254 144.035 126.829C143.103 126.403 142.088 126.191 141.064 126.208C138.885 126.208 137.027 127.033 135.497 128.667C133.966 130.301 133.192 132.36 133.192 134.831C133.192 137.256 133.957 139.288 135.497 140.914C137.036 142.539 138.888 143.351 141.064 143.351V143.348ZM164.576 106.468V148.035H158.364V106.468H164.576ZM181.604 148.883C177.602 148.883 174.265 147.524 171.588 144.813C168.91 142.101 167.569 138.747 167.569 134.745C167.569 130.605 168.859 127.205 171.45 124.568C172.666 123.289 174.134 122.276 175.761 121.593C177.389 120.91 179.14 120.572 180.905 120.601C182.616 120.601 184.21 120.91 185.672 121.538C187.031 122.095 188.268 122.913 189.313 123.946C190.184 124.813 190.957 125.774 191.617 126.81C192.163 127.695 192.63 128.628 193.011 129.596L193.656 131.202L174.753 139.033C176.186 141.889 178.479 143.319 181.61 143.319C184.465 143.319 186.79 142.02 188.57 139.412L193.386 142.628C192.311 144.233 190.797 145.681 188.834 146.965C186.87 148.25 184.454 148.886 181.598 148.886L181.604 148.883ZM173.732 134.321L186.346 129.075C185.984 128.18 185.331 127.458 184.339 126.907C183.341 126.349 182.214 126.064 181.071 126.082C179.248 126.082 177.545 126.827 175.96 128.326C174.374 129.826 173.609 131.829 173.681 134.323L173.732 134.321ZM226.278 148.883C220.631 148.883 215.901 146.974 212.082 143.15C208.264 139.326 206.349 134.564 206.349 128.851C206.349 123.138 208.258 118.37 212.082 114.552C215.907 110.734 220.634 108.819 226.278 108.819C232.06 108.819 236.759 110.911 240.362 115.082L236.936 118.408C234.356 115.157 230.773 113.534 226.272 113.534C222.087 113.534 218.573 114.945 215.666 117.768C212.759 120.592 211.354 124.281 211.354 128.851C211.354 133.42 212.788 137.118 215.666 139.945C218.544 142.771 222.067 144.179 226.272 144.179C230.876 144.179 234.807 142.321 238.026 138.612L241.451 142.038C239.656 144.18 237.403 145.891 234.858 147.046C232.159 148.287 229.218 148.916 226.247 148.886L226.278 148.883ZM250.805 148.035H245.875V109.687H250.805V148.035ZM258.841 124.929C261.378 122.272 264.574 120.936 268.536 120.936C272.497 120.936 275.694 122.269 278.231 124.929C280.768 127.59 282.035 130.949 282.035 134.92C282.035 138.89 280.774 142.25 278.231 144.91C275.688 147.57 272.497 148.903 268.536 148.903C264.574 148.903 261.378 147.57 258.841 144.91C256.304 142.25 255.037 138.89 255.037 134.92C255.037 130.949 256.298 127.59 258.841 124.929ZM262.51 141.794C264.23 143.523 266.219 144.391 268.53 144.391C270.841 144.391 272.83 143.523 274.55 141.794C276.27 140.065 277.096 137.766 277.096 134.914C277.096 132.062 276.244 129.76 274.55 128.034C272.856 126.308 270.841 125.437 268.53 125.437C266.219 125.437 264.23 126.305 262.51 128.034C260.79 129.763 259.964 132.062 259.964 134.914C259.964 137.766 260.816 140.068 262.51 141.794ZM309.294 148.035H304.578V144.394H304.363C303.618 145.641 302.471 146.707 300.938 147.547C299.404 148.387 297.784 148.866 296.064 148.866C292.776 148.866 290.291 147.868 288.597 145.865C286.902 143.861 286.051 141.183 286.051 137.829V121.759H290.982V137.021C290.982 141.917 293.14 144.36 297.46 144.36C298.427 144.38 299.385 144.167 300.252 143.739C301.12 143.311 301.871 142.68 302.443 141.9C303.717 140.284 304.397 138.279 304.369 136.221V121.759H309.3V148.009L309.294 148.035ZM326.001 148.886C322.61 148.886 319.677 147.544 317.217 144.867C314.758 142.19 313.525 138.87 313.525 134.902C313.525 130.935 314.758 127.615 317.217 124.938C319.677 122.26 322.613 120.919 326.001 120.919C327.996 120.919 329.796 121.349 331.39 122.2C332.984 123.052 334.171 124.127 334.954 125.417H335.169L334.954 121.776V109.679H339.884V148.035H335.169V144.394H334.954C334.171 145.675 332.984 146.75 331.39 147.61C329.799 148.453 327.999 148.883 326.001 148.883V148.886ZM326.804 144.385C327.916 144.4 329.019 144.179 330.04 143.736C331.06 143.292 331.975 142.637 332.723 141.814C334.349 140.103 335.16 137.795 335.16 134.934C335.16 132.073 334.352 129.737 332.723 128.054C331.975 127.231 331.06 126.575 330.04 126.132C329.019 125.689 327.916 125.467 326.804 125.483C324.516 125.483 322.552 126.351 320.91 128.08C319.267 129.808 318.45 132.107 318.45 134.96C318.45 137.812 319.267 140.114 320.91 141.84C321.652 142.666 322.561 143.325 323.577 143.773C324.593 144.221 325.693 144.447 326.804 144.437V144.385Z" fill="#edf6f9"/>
</g>
<defs>
<clipPath id="clip0_809_230">
<rect width="360" height="172" fill="white"/>
</clipPath>
</defs>
</svg>
